<svg xmlns="http://www.w3.org/2000/svg" width="32" height="32" viewBox="0 0 256 257"><defs><linearGradient id="a" x1="10%" x2="50%" y1="0%" y2="100%"><stop offset="0%" stop-color="#41D1FF"/><stop offset="100%" stop-color="#BD34FE"/></linearGradient><linearGradient id="b" x1="50%" x2="50%" y1="0%" y2="100%"><stop offset="0%" stop-color="#FFEA83"/><stop offset="8.333%" stop-color="#FFDD35"/><stop offset="100%" stop-color="#FFA800"/></linearGradient></defs><path fill="url(#a)" d="M255.853 37.754 145.803 10.625c-8.285-2.057-16.907-2.057-25.192 0L10.56 37.754C4.316 39.299 0 44.907 0 51.336c0 1.232.145 2.454.427 3.628l35.49 148.114c2.513 10.489 11.127 18.52 21.65 20.196l62.269 9.923c8.113 1.293 16.374 1.293 24.487 0l62.29-9.923c10.513-1.676 19.126-9.707 21.639-20.196l35.491-148.114c.281-1.174.427-2.396.427-3.628 0-6.429-4.316-12.037-10.56-13.582Z"/><path fill="url(#b)" d="m150.841 43.511-28.525-4.531c-2.305-.367-4.646-.367-6.95 0l-28.526 4.531c-4.832.768-8.216 5.376-7.55 10.231l12.42 90.75c.523 3.818 3.535 6.786 7.353 7.234l20.407 2.39c3.047.357 6.13.357 9.177 0l20.406-2.39c3.819-.448 6.83-3.416 7.354-7.234l12.419-90.75c.666-4.855-2.718-9.463-7.55-10.231Z"/><path fill="#FFF" d="M128 202.007c-31.481 0-57-25.519-57-57 0-31.481 25.519-57 57-57s57 25.519 57 57c0 31.481-25.519 57-57 57Zm0-95.125c-21.011 0-38.125 17.114-38.125 38.125S106.989 183.132 128 183.132s38.125-17.114 38.125-38.125S149.011 106.882 128 106.882Z"/></svg>
